REM DIRINDEX 1\2,1\3,1\4,1\5,1\6
REM DIRNAME cjc030,folder01,folder02,folder03,folder04,folder05
TITLE ""
FILE "Disc3Track56.mp3" MP3
  TRACK 01 AUDIO
    TITLE "2:cjc030_05804"
    INDEX 01 00:00:00
  TRACK 02 AUDIO
    TITLE "0:"
    INDEX 01 00:04:44
  TRACK 03 AUDIO
    TITLE "3:cjc030_05805"
    INDEX 01 00:05:05
  TRACK 04 AUDIO
    TITLE "0:"
    INDEX 01 00:06:20
  TRACK 05 AUDIO
    TITLE "4:cjc030_05806"
    INDEX 01 00:06:28
  TRACK 06 AUDIO
    TITLE "0:"
    INDEX 01 00:08:50
  TRACK 07 AUDIO
    TITLE "5:cjc030_05807"
    INDEX 01 00:08:58
  TRACK 08 AUDIO
    TITLE "0:"
    INDEX 01 00:10:00
  TRACK 09 AUDIO
    TITLE "6:cjc030_05808"
    INDEX 01 00:10:14
  TRACK 10 AUDIO
    TITLE "0:"
    INDEX 01 00:13:67
  TRACK 11 AUDIO
    TITLE "3:cjc030_05809"
    INDEX 01 00:14:41
  TRACK 12 AUDIO
    TITLE "0:"
    INDEX 01 00:15:72
  TRACK 13 AUDIO
    TITLE "4:cjc030_05810"
    INDEX 01 00:16:06
  TRACK 14 AUDIO
    TITLE "0:"
    INDEX 01 00:17:08
  TRACK 15 AUDIO
    TITLE "5:cjc030_05811"
    INDEX 01 00:17:16
  TRACK 16 AUDIO
    TITLE "0:"
    INDEX 01 00:18:50
  TRACK 17 AUDIO
    TITLE "3:cjc030_05812"
    INDEX 01 00:19:28
  TRACK 18 AUDIO
    TITLE "0:"
    INDEX 01 00:20:55
  TRACK 19 AUDIO
    TITLE "4:cjc030_05813"
    INDEX 01 00:20:65
  TRACK 20 AUDIO
    TITLE "0:"
    INDEX 01 00:22:15
  TRACK 21 AUDIO
    TITLE "5:cjc030_05814"
    INDEX 01 00:22:21
  TRACK 22 AUDIO
    TITLE "0:"
    INDEX 01 00:23:51
  TRACK 23 AUDIO
    TITLE "3:cjc030_05815"
    INDEX 01 00:24:25
  TRACK 24 AUDIO
    TITLE "0:"
    INDEX 01 00:25:35
  TRACK 25 AUDIO
    TITLE "4:cjc030_05816"
    INDEX 01 00:25:45
  TRACK 26 AUDIO
    TITLE "0:"
    INDEX 01 00:29:36
  TRACK 27 AUDIO
    TITLE "5:cjc030_05817"
    INDEX 01 00:29:44
  TRACK 28 AUDIO
    TITLE "0:"
    INDEX 01 00:30:55
  TRACK 29 AUDIO
    TITLE "6:cjc030_05818"
    INDEX 01 00:30:67
  TRACK 30 AUDIO
    TITLE "0:"
    INDEX 01 00:36:25
  TRACK 31 AUDIO
    TITLE "3:cjc030_05819"
    INDEX 01 00:36:74
  TRACK 32 AUDIO
    TITLE "0:"
    INDEX 01 00:38:18
  TRACK 33 AUDIO
    TITLE "4:cjc030_05820"
    INDEX 01 00:38:24
  TRACK 34 AUDIO
    TITLE "0:"
    INDEX 01 00:41:24
  TRACK 35 AUDIO
    TITLE "5:cjc030_05821"
    INDEX 01 00:41:32
  TRACK 36 AUDIO
    TITLE "0:"
    INDEX 01 00:42:51
  TRACK 37 AUDIO
    TITLE "6:cjc030_05822"
    INDEX 01 00:42:63
  TRACK 38 AUDIO
    TITLE "0:"
    INDEX 01 00:44:50
  TRACK 39 AUDIO
    TITLE "3:cjc030_05823"
    INDEX 01 00:45:26
  TRACK 40 AUDIO
    TITLE "0:"
    INDEX 01 00:46:35
  TRACK 41 AUDIO
    TITLE "4:cjc030_05824"
    INDEX 01 00:46:45
  TRACK 42 AUDIO
    TITLE "0:"
    INDEX 01 00:48:26
  TRACK 43 AUDIO
    TITLE "5:cjc030_05825"
    INDEX 01 00:48:34
  TRACK 44 AUDIO
    TITLE "0:"
    INDEX 01 00:49:45
  TRACK 45 AUDIO
    TITLE "6:cjc030_05826"
    INDEX 01 00:49:59
  TRACK 46 AUDIO
    TITLE "0:"
    INDEX 01 00:54:13
  TRACK 47 AUDIO
    TITLE "3:cjc030_05827"
    INDEX 01 00:54:58
  TRACK 48 AUDIO
    TITLE "0:"
    INDEX 01 00:55:61
  TRACK 49 AUDIO
    TITLE "4:cjc030_05828"
    INDEX 01 00:55:69
  TRACK 50 AUDIO
    TITLE "0:"
    INDEX 01 00:57:48
  TRACK 51 AUDIO
    TITLE "5:cjc030_05829"
    INDEX 01 00:57:58
  TRACK 52 AUDIO
    TITLE "0:"
    INDEX 01 00:58:60
  TRACK 53 AUDIO
    TITLE "3:cjc030_05830"
    INDEX 01 00:59:43
  TRACK 54 AUDIO
    TITLE "0:"
    INDEX 01 01:00:45
  TRACK 55 AUDIO
    TITLE "4:cjc030_05831"
    INDEX 01 01:00:53
  TRACK 56 AUDIO
    TITLE "0:"
    INDEX 01 01:02:54
  TRACK 57 AUDIO
    TITLE "5:cjc030_05832"
    INDEX 01 01:02:63
  TRACK 58 AUDIO
    TITLE "0:"
    INDEX 01 01:03:65
  TRACK 59 AUDIO
    TITLE "6:cjc030_05833"
    INDEX 01 01:04:01
  TRACK 60 AUDIO
    TITLE "0:"
    INDEX 01 01:05:48
